<svg xmlns="http://www.w3.org/2000/svg"  width="9.9161596cm" height="9.9491796cm" viewBox="0 0 73150 73150">
<path
 d="m 343.5353,96.744073 h -113.393 c -1.252,-5.007 -3.313,-9.719 -6.038,-13.916 l 45.799,-55.813 c 3.608,-4.418 3.019,-10.971 -1.399,-14.653 -4.418,-3.6080001 -10.971,-3.0190001 -14.653,1.399 l -45.062,54.856 c -6.259,-3.461 -13.475,-5.449 -21.132,-5.449 -5.817,0 -11.413,1.178 -16.494,3.24 L 156.1423,8.7540729 c -1.473,-5.522 -7.142,-8.90900008 -12.665,-7.4370001 -5.522,1.4730001 -8.909,7.1420001 -7.437,12.6650002 l 17.156,66.048 c -3.755,4.86 -6.553,10.456 -8.1,16.641 H 31.778297 c -17.156,0.073 -31.14599891,14.062997 -31.14599891,31.292997 v 205.58 c 0,17.156 13.98999891,31.146 31.14599891,31.146 h 18.555 c 0,0 0,0 0,0.074 0,5.743 4.639,10.382 10.382,10.382 h 20.986 c 5.743,0 10.382,-4.639 10.382,-10.382 0,0 0,0 0,-0.074 H 283.1573 c 0,0 0,0 0,0.074 0,5.743 4.639,10.382 10.382,10.382 h 20.985 c 5.743,0 10.382,-4.639 10.382,-10.382 0,0 0,0 0,-0.074 h 18.555 c 17.156,0 31.146,-13.99 31.146,-31.146 v -205.58 c 0.074,-17.23 -13.916,-31.219997 -31.073,-31.219997"
 style="fill:#000;stroke:#000000;"
 transform="scale(104.35) translate(69 22)"
 id="path2" />
  <circle cx="40432.2" cy="18370.9" r="2952.76" style="fill:#a9a9a9;stroke-width:0"/>
  <circle cx="40432.2" cy="27032.3" r="2952.76" style="fill:#a9a9a9;stroke-width:0"/>
  <path d="m22603.6 2455.89 102.7 20.4 99.8 30.19 96.1 39.56 91.9 48.51 87 57.05 81.3 65.18 75.1 72.88 68.1 80.17 60.5 87.05 52.3 93.51 43.4 99.56 33.8 105.18 1552.7 5959.82-140.7 70.33-3.3 1.85-250 150-2.3 1.47-310 210-1.2.84-430 310-1.2.88-300 229.98-3 2.5-300 270-4.7 4.8-128.9 151.4-1771.4-6819.3-22.9-107.93-11.4-107.63-.4-106.66 10.2-105.03 20.4-102.73 30.2-99.79 39.5-96.16 48.5-91.88 57.1-86.95 65.2-81.33 72.8-75.07 80.2-68.13 87.1-60.54 93.5-52.28 99.5-43.35 105.2-33.78 107.9-22.9 107.7-11.45 106.6-.42Z" style="fill:#a9a9a9;stroke:#000;stroke-width:100;stroke-linecap:round;stroke-linejoin:round;"/>
  <path d="m34615.9 3390.57 103.4 14.96 101.9 24.93 99.9 34.95 96.9 45.03 93.2 55.16 88.7 65.36 81.6 75.28 72.2 81.53 62.8 87.02 53.2 91.73 43.7 95.69 34 98.87 24.3 101.31 14.6 102.97 4.8 103.86-5 104.01-15 103.37-24.9 101.98-35 99.82-45 96.9-55.2 93.22-65.3 88.76-4743.5 5780.62-161.5-226.9-2.6-3.4-450-530-4.8-4.9-380-339.96-4.7-3.75-430-300-7.5-4.33-151.5-70.43 4664-5677.54 75.3-81.61 81.5-72.2 87-62.74 91.8-53.22 95.7-43.65 98.8-34.02 101.3-24.34 103-14.6 103.9-4.8Z" style="fill:#a9a9a9;stroke:#000;stroke-width:100;stroke-linecap:round;stroke-linejoin:round;"/>
  <path d="M34449.1 38919.3H9352.28V13822.4H34449.1Z" style="fill:#b5b277;stroke:#000;stroke-width:100;stroke-linecap:round;stroke-linejoin:round;"/>
  <path d="m36773.2 33799.9 934.2-1378.6h494.5l-1171.2 1677.1 1168.9 1715.8h-521.8l-925.1-1396.8-947.9 1396.8h-492.2l1182.6-1695.3-1155.3-1697.6h519.6Z" style="fill:#FFF;stroke:#000;stroke-width:39.3701;stroke-linecap:round;stroke-linejoin:round;fill-rule:evenodd"/>
  <path d="m44414 33918 36 24m0 0 37 16m0 0 38 13m0 0 38 11m0 0 6 1m-422-155 2-39m0 0 7-42m0 0 12-41m0 0 11-26m895 84-32-22m0 0-34-20m0 0-37-19m0 0-40-18m0 0-42-17m0 0-14-5m0 0-44-14m0 0-44-12m0 0-43-8m0 0-43-6m0 0-42-2m0 0h-14m229 669-35-24m0 0-39-16m0 0-43-14m0 0-42-11m0 0-8-2m-2715 3431 532-1492m2561-2398h-11m-5323 2398h1438m3380-2179 39 9m0 0 41 8m0 0 39 8m0 0 14 2m-2178 2152h231m-1295 0 532 1492m2899-4186 42 11m0 0 40 11m0 0 37 13m0 0 40 15m0 0 35 17m-440 86-43 1m0 0-40 5m0 0-44 10m0 0-40 14m0 0-32 15m-2610 4192-617-1696m-862 1696v-1496m226 0v1496m3633-3818-23-34m0 0-19-36m0 0-14-40m0 0-9-42m0 0-4-44m0 0v-16" style="fill:#F00;stroke:#FFF;stroke-width:38.5823;stroke-linecap:round;stroke-linejoin:round"/>
  <path d="m44825 34036 45 11m0 0 41 15m0 0 38 16m0 0 35 19m0 0 38 26m0 0 33 30m-353-143 39 8m0 0 40 8m0 0 37 8m0 0 7 2m-379-370-35 25m0 0-25 31m0 0-16 36m0 0-5 42m74-328 38-11m0 0 40-9m0 0 41-6m0 0 43-4m0 0 44-2m0 0h16m-383 116 34-25m0 0 33-20m0 0 37-18m0 0 39-15m0 0 18-6m149 728-40-8m0 0-38-9m0 0-40-9m0 0-16-4m253 53-38-8m0 0-38-7m0 0-39-8m0 0h-4m28 393 43-1m0 0 39-4m0 0 44-7m0 0 39-10m0 0 41-16m0 0 15-8m-3648 1815h-606m3782-2562 4 41m0 0 14 38m0 0 25 34m0 0 6 5m-235-238 18-34m0 0 23-32m0 0 27-30m0 0 31-28m-126 870 33 23m0 0 33 22m0 0 34 20m0 0 36 19m0 0 37 17m0 0 38 15m0 0 15 6m707-1013v229m-248 783 35-26m0 0 25-33m0 0 15-39m0 0 5-39m0 0v-6m-3728 1758v200m30-200h241m3457-1758-4-40m0 0-11-37m0 0-23-32m0 0-5-5m-2737 3568h-301m-1253 0h-226m2398-1696-618 1696m2524-4418 42 1m0 0 43 3m0 0 43 5m0 0 44 7m0 0 43 9m0 0 15 3m-513 1080 39 13m0 0 38 11m0 0 45 10m0 0 44 6m0 0 43 4m0 0 29 1m439-440 27 33m0 0 22 38m0 0 16 41m0 0 11 45m0 0 4 41m0 0 1 25m-995 50h11m-11 241v-241m313-256-40-12m0 0-37-13m0 0-43-18m0 0-37-20m0 0-33-22m0 0-34-29m0 0-14-16m-4465 2322v-200m606 200h-606m3248-2028 17 36m0 0 19 34m0 0 25 35m0 0 29 30m0 0 7 7m-2817-1016 44-7m0 0 44-5m0 0 44-4m0 0 43-3m0 0 44-1m0 0h14m315 308-22-33m0 0-29-27m0 0-22-15m165-135 34 28m0 0 29 32m0 0 25 36m0 0 19 34m0 0 2 5m-517-44-43 1m0 0-40 4m0 0-42 6m0 0-44 7m0 0-19 5m4813 724-3 43m0 0-6 40m0 0-12 39m0 0-16 37m0 0-20 35m0 0-25 32m0 0-29 31m0 0-34 29m-2027-697h729m-1103-495-591 588m1237 500 42 12m0 0 39 8m0 0 40 5m0 0 41 3m0 0h18m-3004-460-39 12m0 0-35 16m0 0-36 22m0 0-32 25m0 0-7 7m765-535 15 39m0 0 11 42m0 0 7 39m0 0 4 42m0 0 1 44m-743-227-39 8m0 0-40 11m0 0-40 11m0 0-40 14m0 0-41 14m0 0-14 5m2525 1028h-283m1987-2-43-13m0 0-40-14m0 0-37-14m0 0-40-16m0 0-37-17m-3869-143 32 22m0 0 39 16m0 0 39 9m0 0 43 6m0 0 40 2m0 0h8m4125 195-44-1m0 0-42-2m0 0-42-4m0 0-40-6m0 0-39-7m0 0-38-9m0 0-15-4m653-79-38 26m0 0-40 23m0 0-45 19m0 0-47 16m0 0-38 9m0 0-40 8m0 0-41 5m0 0-43 4m0 0-46 2m0 0h-15m-696-761v116m-823-416-29 33m0 0-26 35m0 0-21 38m0 0-16 40m0 0-13 42m0 0-8 45m0 0-2 19m913 467v234m-523-1054-42 1m0 0-40 5m0 0-47 10m0 0-43 16m0 0-40 20m0 0-36 25m0 0-27 24m529-9-28-27m0 0-33-22m0 0-36-17m0 0-41-13m0 0-46-9m0 0-39-4m0 0h-31m548 517h-938m901 303h12m-184-467-1-41m0 0-5-39m0 0-8-45m0 0-13-41m0 0-17-37m0 0-21-34m0 0-20-24m-1257 1039-510-557m1921-601 32 40m0 0 22 32m0 0 19 35m0 0 17 37m0 0 15 38m0 0 12 42m0 0 9 43m0 0 7 46m0 0 5 47m0 0 2 51m0 0v17m-2200 94 618-637m-1847 1109 42-2m0 0 40-4m0 0 39-8m0 0 38-10m0 0 36-14m0 0 12-5m2685-1101 47 1m0 0 45 4m0 0 44 7m0 0 41 9m0 0 38 12m0 0 37 15m0 0 35 17m0 0 43 27m0 0 39 32m0 0 28 26m-846 34 33-33m0 0 35-30m0 0 37-26m0 0 38-23m0 0 41-20m0 0 42-17m0 0 45-13m0 0 46-10m0 0 48-7m0 0 50-4m0 0 34-1m51 1151 41-1m0 0 41-4m0 0 40-6m0 0 41-9m0 0 41-11m0 0 41-14m0 0 16-6m-2190 208v-1773m215 0v1137m-1604-609 39-10m0 0 43-9m0 0 43-9m0 0 41-7m0 0 15-3m467 2 42 11m0 0 40 14m0 0 38 18m0 0 34 20m0 0 19 13m-275 100-40-5m0 0-42-3m0 0-42-1m0 0h-9m2235 485 2-57m0 0 4-55m0 0 8-53m0 0 10-51m0 0 14-48m0 0 16-46m0 0 20-44m0 0 22-42m0 0 25-39m0 0 29-37m0 0 20-23m-1850 260v864m-957-1028h-11m2826 887-32-34m0 0-28-36m0 0-26-38m0 0-22-41m0 0-19-44m0 0-17-46m0 0-13-49m0 0-9-51m0 0-7-54m0 0-4-56m0 0-1-39m-2066 422 34-18m0 0 39-21m0 0 38-24m0 0 37-24m0 0 25-19m2566 343-39-1m0 0-57-4m0 0-54-6m0 0-52-10m0 0-49-12m0 0-47-16m0 0-44-18m0 0-42-22m0 0-39-24m0 0-37-28m0 0-35-30m-2071-172v-355m2824 460 40-17m0 0 35-16m0 0 38-19m0 0 38-23m0 0 34-25m0 0 3-3m-3353-992h41m0 0 40 2m0 0 45 3m0 0 42 5m0 0 40 7m0 0 26 5m8 211-37-17m0 0-38-12m0 0-35-6m-438 721 2 39m0 0 9 41m0 0 15 36m0 0 24 34m0 0 16 15m2692-395 1 43m0 0 4 41m0 0 6 39m0 0 11 42m0 0 13 40m-679-864h270m-1737 605-45 3m0 0-41 3m0 0-43 3m0 0-46 4m0 0-40 3m0 0-16 1m3034 650-43 10m0 0-44 9m0 0-44 6m0 0-45 4m0 0-46 2m0 0h-15m-1717-30h-215m2390-77-41 16m0 0-41 16m0 0-42 14m0 0-41 14m0 0-42 12m0 0-14 4m-560-266 31 26m0 0 34 22m0 0 36 19m0 0 39 15m-1749-1588h215m297 1088 635 685" style="fill:#F00;stroke:#FFF;stroke-width:38.5823;stroke-linecap:round;stroke-linejoin:round"/>
  <path d="M41702 34318v425m-1439-535-25 30m0 0-18 35m0 0-11 40m0 0-3 40m0 0v6m1635-173-139 132m-1080-226-40 4m0 0-45 6m0 0-40 5m0 0-43 8m0 0-42 11m441-224v-33m-755-154v-217m-1664-63 40 1m0 0 45 6m0 0 42 9m0 0 39 12m0 0 37 17m0 0 17 10m181 309 4 40m0 0 2 21m-1034-390h215m-315-1049h494m389 1316-23-33m0 0-29-26m0 0-23-14m927 196-5-40m0 0-9-40m0 0-13-36m0 0-3-6m-1390 55v950m1542-1180 24 33m0 0 20 36m0 0 17 40m0 0 15 43m0 0 10 45m0 0 8 49m0 0 4 39m0 0 2 41m0 0 1 28m-650-232-39 20m0 0-34 20m0 0-34 21m0 0-33 23m0 0-34 25m0 0-6 5m192-315 40-17m0 0 42-13m0 0 43-10m0 0 44-6m0 0 44-3m0 0h16m-61 204-39 2m0 0-40 7m0 0-39 11m0 0-39 15m0 0-23 11m-361-195 33 22m0 0 33 29m0 0 30 34m0 0 25 37m0 0 15 29m-2986 2173h-492m2365 0-925-1397m1447 1397h-522m1579-2379 50 2m0 0 47 6m0 0 44 10m0 0 41 14m0 0 36 18m0 0 34 22m0 0 30 26m0 0 26 30m-1190 76-44 3m0 0-39 7m0 0-38 10m0 0-39 16m0 0-17 7m318-18-39-14m0 0-39-7m0 0-41-4m0 0h-22m-173-1218-1171 1677m1813 645h-214m214-815v815m-222-884-5-41m0 0-9-39m0 0-14-36m0 0-3-6m2185 925-32 22m0 0-35 20m0 0-26 13m-1017-800v826m-253-1005-23-33m0 0-29-27m0 0-24-14m-4024 2150 1183-1696m2134 625v-725m821 0v-40m0 0-2-40m0 0-2-39m0 0-4-39m-652-219 32-26m0 0 31-25m0 0 38-27m0 0 37-25m0 0 37-22m0 0 34-19m0 0 28-13m-2254 315 934-1378m3146 1448-2-39m0 0-7-39m0 0-14-37m0 0-3-6m-5488-1327h520m4245 2243-28-29m0 0-24-31m0 0-21-34m0 0-16-35m0 0-13-37m0 0-10-40m0 0-5-41m0 0-2-43m411 404-42-1m0 0-41-6m0 0-39-9m0 0-37-12m0 0-36-16m0 0-34-20m0 0-32-23m0 0-31-27m-4245-2243 914 1378m1034 944v-1273m1034 390 2 41m0 0v27m-821-458v142m1643 1131h-215m-1229-1261 38-16m0 0 39-13m0 0 40-9m0 0 40-6m0 0 42-3m0 0h14m195 583-1-41m0 0-1-41m0 0-3-39m0 0-3-38m2232 884v-136m213 136h-213m-3823-645 1169 1716m2304-1884 41-5m0 0 42-4m0 0 43-4m0 0 43-3m0 0 44-4m0 0 45-3m0 0 46-2m0 0 46-3m-2656-220-38 20m0 0-39 23m0 0-33 21m0 0-32 22m0 0-33 25m1428 950v-725m774-19 37-15m0 0 40-14m0 0 42-12m0 0 44-10m0 0 47-9m0 0 39-6m0 0 30-3m-457 210 26-32m0 0 29-30m0 0 32-27m0 0 37-24m0 0 40-21m0 0 14-7m-2202-387 31-25m0 0 31-24m0 0 38-25m0 0 37-23m0 0 37-21m0 0 25-12m2338 1278-41 9m0 0-40 5m0 0-42 3m0 0-40 1m-411-404 1-44m0 0 5-41m0 0 7-38m0 0 13-43m0 0 18-39m0 0 17-29m636 577-39 17m0 0-38 13m0 0-37 11m0 0-9 2m-1223-1096-38-14m0 0-40-7m0 0-40-4m0 0h-23m-2443 778-948 1397m5049-1207-34 24m0 0-32 23m0 0-12 8m-2753 81h-215m-1312-625-1156-1697" style="fill:#F00;stroke:#FFF;stroke-width:38.5823;stroke-linecap:round;stroke-linejoin:round"/>

</svg>
